<svg width="137" height="104" viewBox="0 0 137 104" fill="none" xmlns="http://www.w3.org/2000/svg">
<path d="M108.037 54.2364C117.142 57.5587 116.67 70.5937 107.348 73.2483L25.4775 96.5617C12.705 100.199 0 90.6067 0 77.3264V29.1104C0 22.1661 6.9041 17.3359 13.4277 19.7162L108.037 54.2364Z" fill="#211DB5"/>
<path d="M5.188 47.9488C5.188 47.5888 5.368 47.2768 5.728 47.0128C6.088 46.7488 6.448 46.6168 6.808 46.6168C7.288 46.6168 7.576 46.7968 7.672 47.1568L13.252 67.4968L17.536 48.5608C17.656 48.0568 17.836 47.6368 18.076 47.3008C18.34 46.9648 18.628 46.7968 18.94 46.7968C19.492 46.7968 19.9 47.3728 20.164 48.5248L24.772 67.4968L30.388 47.1568C30.508 46.7968 30.796 46.6168 31.252 46.6168C31.612 46.6168 31.972 46.7488 32.332 47.0128C32.692 47.2768 32.872 47.5888 32.872 47.9488C32.872 48.0448 32.848 48.1648 32.8 48.3088L26.428 70.5568C26.26 70.9168 26.008 71.2168 25.672 71.4568C25.336 71.6968 25.036 71.8168 24.772 71.8168C24.508 71.8168 24.208 71.7088 23.872 71.4928C23.536 71.2528 23.272 70.9408 23.08 70.5568L18.904 55.2208L14.908 70.5568C14.74 70.9168 14.488 71.2168 14.152 71.4568C13.816 71.6968 13.516 71.8168 13.252 71.8168C12.988 71.8168 12.688 71.7088 12.352 71.4928C12.016 71.2528 11.752 70.9408 11.56 70.5568L5.26 48.3088C5.212 48.1648 5.188 48.0448 5.188 47.9488ZM36.2186 70.8808V45.7528C36.2186 45.4408 36.3386 45.2008 36.5786 45.0328C36.8426 44.8648 37.1546 44.7808 37.5146 44.7808C38.4266 44.7808 38.8826 45.1048 38.8826 45.7528V57.7048C40.0586 56.4568 41.4986 55.4728 43.2026 54.7528C44.9066 54.0328 46.6466 53.6728 48.4226 53.6728C50.7026 53.6728 52.5986 54.3448 54.1106 55.6888C55.6226 57.0088 56.3786 58.7848 56.3786 61.0168C56.3786 61.2328 56.3666 62.3368 56.3426 64.3288C56.3426 66.2968 56.3426 68.4568 56.3426 70.8088C56.3426 71.1208 56.2106 71.3728 55.9466 71.5648C55.6826 71.7328 55.3706 71.8168 55.0106 71.8168C54.1226 71.8168 53.6786 71.4808 53.6786 70.8088V61.3408C53.6786 60.1648 53.3426 59.1808 52.6706 58.3888C52.0226 57.5728 51.3026 57.0208 50.5106 56.7328C49.7186 56.4448 48.9146 56.3008 48.0986 56.3008C46.3226 56.3008 44.5106 56.8528 42.6626 57.9568C40.8386 59.0608 39.5786 60.4768 38.8826 62.2048V70.8808C38.8826 71.5288 38.4266 71.8528 37.5146 71.8528C37.1546 71.8528 36.8426 71.7688 36.5786 71.6008C36.3386 71.4328 36.2186 71.1928 36.2186 70.8808ZM60.4413 70.8088V54.7888C60.4413 54.1408 60.8973 53.8168 61.8093 53.8168C62.1693 53.8168 62.4693 53.9008 62.7093 54.0688C62.9733 54.2368 63.1053 54.4768 63.1053 54.7888V70.8088C63.1053 71.1208 62.9733 71.3728 62.7093 71.5648C62.4453 71.7328 62.1333 71.8168 61.7733 71.8168C60.8853 71.8168 60.4413 71.4808 60.4413 70.8088ZM60.4413 49.2088V48.5608C60.4413 47.9128 60.8973 47.5888 61.8093 47.5888C62.1693 47.5888 62.4693 47.6728 62.7093 47.8408C62.9733 48.0088 63.1053 48.2488 63.1053 48.5608V49.2088C63.1053 49.5208 62.9733 49.7728 62.7093 49.9648C62.4453 50.1328 62.1333 50.2168 61.7733 50.2168C60.8853 50.2168 60.4413 49.8808 60.4413 49.2088ZM66.2493 55.1488C66.2493 54.7888 66.3333 54.4768 66.5013 54.2128C66.6933 53.9488 66.9453 53.8168 67.2573 53.8168H68.4813V49.3888C68.4813 49.0768 68.6013 48.8368 68.8413 48.6688C69.1053 48.5008 69.4173 48.4168 69.7773 48.4168C70.6893 48.4168 71.1453 48.7408 71.1453 49.3888V53.8168H76.9053C77.2173 53.8168 77.4573 53.9488 77.6253 54.2128C77.7933 54.4528 77.8773 54.7528 77.8773 55.1128C77.8773 56.0248 77.5533 56.4808 76.9053 56.4808H71.1453V65.0848C71.1453 67.7728 72.1653 69.1168 74.2053 69.1168C75.0693 69.1168 75.8133 68.8768 76.4373 68.3968C77.0853 67.9168 77.4093 67.0768 77.4093 65.8768C77.4093 65.5408 77.5413 65.2648 77.8053 65.0488C78.0933 64.8328 78.4293 64.7248 78.8133 64.7248C79.1733 64.7248 79.4733 64.8328 79.7133 65.0488C79.9533 65.2408 80.0733 65.5288 80.0733 65.9128C80.0493 67.8088 79.4733 69.2608 78.3453 70.2688C77.2413 71.2768 75.8613 71.7808 74.2053 71.7808C70.3893 71.7808 68.4813 69.2248 68.4813 64.1128V56.4808H67.2573C66.5853 56.4808 66.2493 56.0368 66.2493 55.1488ZM82.0438 62.3128C82.0438 60.7768 82.3798 59.4088 83.0518 58.2088C83.7238 57.0088 84.6118 56.0608 85.7158 55.3648C86.8198 54.6688 88.0078 54.1528 89.2798 53.8168C90.5518 53.4568 91.8478 53.2768 93.1678 53.2768C95.5198 53.2768 97.3438 53.7928 98.6398 54.8248C99.9358 55.8328 100.584 57.0808 100.584 58.5688C100.584 60.1768 99.8278 61.5448 98.3158 62.6728C96.8038 63.8008 94.6558 64.3648 91.8718 64.3648C89.3758 64.3648 86.9998 64.0048 84.7438 63.2848C85.0078 65.0608 85.8358 66.5488 87.2278 67.7488C88.6198 68.9488 90.3358 69.5488 92.3758 69.5488C93.4558 69.5488 94.5718 69.3808 95.7238 69.0448C96.8998 68.7088 97.8238 68.2288 98.4958 67.6048C98.5918 67.4128 98.7838 67.3168 99.0718 67.3168C99.4078 67.3168 99.7678 67.4728 100.152 67.7848C100.536 68.0728 100.728 68.3728 100.728 68.6848C100.128 69.9088 98.9518 70.8088 97.1998 71.3848C95.4718 71.9368 93.7918 72.2128 92.1598 72.2128C89.2078 72.2128 86.7838 71.2408 84.8878 69.2968C82.9918 67.3528 82.0438 65.0248 82.0438 62.3128ZM84.8878 60.5128C86.6878 61.3048 88.9198 61.7008 91.5838 61.7008C93.6718 61.7008 95.2558 61.3768 96.3358 60.7288C97.4158 60.0568 97.9558 59.3128 97.9558 58.4968C97.9558 57.7768 97.4998 57.1768 96.5878 56.6968C95.6998 56.1928 94.3678 55.9408 92.5918 55.9408C90.6718 55.9408 89.0638 56.3728 87.7678 57.2368C86.4958 58.0768 85.5358 59.1688 84.8878 60.5128Z" fill="white"/>
<path d="M21.5699 16.6782C20.8989 16.432 20.3517 16.112 19.9281 15.718C19.5183 15.3176 19.2379 14.8739 19.0871 14.3869C18.95 13.8935 18.9483 13.3872 19.0819 12.8681L20.8844 13.5294C20.8573 13.7581 20.8758 13.9864 20.9399 14.2144C21.0076 14.4324 21.1332 14.6319 21.3168 14.8129C21.5104 14.9975 21.7624 15.1468 22.0728 15.2607C22.3733 15.3709 22.6333 15.4209 22.853 15.4105C23.0763 15.3902 23.2587 15.3265 23.4003 15.2194C23.5419 15.1122 23.642 14.9786 23.7008 14.8183C23.789 14.578 23.7919 14.3688 23.7094 14.1909C23.627 14.013 23.4735 13.843 23.2488 13.6811C23.0379 13.5128 22.775 13.3311 22.4603 13.1361C22.1255 12.9338 21.8062 12.7201 21.5025 12.495C21.2124 12.2636 20.9616 12.0182 20.75 11.7588C20.5484 11.5031 20.4135 11.2206 20.3451 10.9115C20.2867 10.606 20.3237 10.2731 20.4559 9.91256C20.6176 9.47194 20.8778 9.11863 21.2368 8.85264C21.6057 8.59032 22.0472 8.43985 22.5613 8.40122C23.0891 8.35624 23.6634 8.44765 24.2843 8.67542C25.1655 8.99872 25.7912 9.46118 26.1613 10.0628C26.545 10.6581 26.6479 11.3377 26.4698 12.1018L24.7575 11.4736C24.8102 11.1748 24.749 10.9081 24.5738 10.6734C24.4023 10.4287 24.1262 10.2365 23.7457 10.0969C23.3552 9.95363 23.0272 9.91852 22.7618 9.99158C22.5101 10.0583 22.3401 10.2118 22.252 10.4522C22.1969 10.6024 22.2055 10.7646 22.2779 10.9389C22.364 11.1068 22.5107 11.2799 22.718 11.4582C22.9289 11.6265 23.1949 11.815 23.516 12.0237C24.0364 12.3396 24.4843 12.6516 24.8598 12.9598C25.2353 13.268 25.495 13.6132 25.6388 13.9955C25.7826 14.3777 25.7572 14.8342 25.5624 15.365C25.3961 15.8493 25.1148 16.229 24.7185 16.504C24.3322 16.7827 23.8702 16.9426 23.3324 16.9839C22.7983 17.0152 22.2107 16.9133 21.5699 16.6782ZM41.5217 23.7934C41.011 23.606 40.5948 23.3624 40.273 23.0626C39.9613 22.7664 39.7682 22.3945 39.6939 21.9468C39.6195 21.4992 39.6981 20.9599 39.9295 20.329L41.219 16.8141L39.9272 16.3402L40.4838 14.823L41.7756 15.297L42.7188 13.3763L44.3111 13.9605L43.5781 15.9583L45.636 16.7132L45.0794 18.2304L43.0215 17.4754L41.732 20.9903C41.5924 21.3708 41.5752 21.6656 41.6803 21.8746C41.7991 22.0772 42.0538 22.2502 42.4443 22.3935L43.3756 22.7352L42.8135 24.2673L41.5217 23.7934ZM59.8444 30.7199C59.1234 30.4554 58.5331 30.0514 58.0735 29.5078C57.6276 28.9579 57.3478 28.327 57.2341 27.6149C57.1341 26.8965 57.2255 26.1518 57.5084 25.3807C57.7987 24.5896 58.2174 23.9592 58.7646 23.4896C59.3155 23.01 59.937 22.7097 60.629 22.5886C61.3347 22.4612 62.0481 22.5298 62.7691 22.7943C63.4901 23.0588 64.0736 23.466 64.5194 24.0159C64.979 24.5595 65.2607 25.1854 65.3643 25.8938C65.4781 26.6059 65.3898 27.3575 65.0996 28.1486C64.8093 28.9397 64.3906 29.57 63.8434 30.0396C63.2962 30.5092 62.6697 30.8077 61.964 30.9351C61.2719 31.0562 60.5654 30.9844 59.8444 30.7199ZM60.412 29.1727C60.7725 29.305 61.131 29.3343 61.4876 29.2606C61.8541 29.1905 62.1936 29.0083 62.5062 28.7139C62.8187 28.4196 63.0723 28.007 63.267 27.4763C63.4617 26.9455 63.5332 26.4718 63.4816 26.0552C63.4436 25.6323 63.3074 25.2755 63.0732 24.9851C62.8489 24.6983 62.5565 24.4888 62.196 24.3565C61.8455 24.2279 61.487 24.1986 61.1204 24.2687C60.7539 24.3387 60.4143 24.5209 60.1018 24.8153C59.793 25.0997 59.5412 25.5072 59.3465 26.038C59.1518 26.5687 59.0784 27.0474 59.1264 27.474C59.1744 27.9007 59.3106 28.2574 59.5348 28.5442C59.7691 28.8346 60.0615 29.0442 60.412 29.1727ZM77.4922 36.9898L80.2696 29.4192L81.8618 30.0034L81.5341 31.3147C81.9261 30.9586 82.3851 30.7294 82.9113 30.627C83.4374 30.5246 83.9959 30.5818 84.5867 30.7985C85.1975 31.0226 85.6705 31.3438 86.0056 31.7622C86.3444 32.1705 86.5389 32.6623 86.5892 33.2374C86.6495 33.8163 86.5456 34.4712 86.2774 35.2023L84.6572 39.6185L82.8547 38.9572L84.4142 34.7062C84.6457 34.0753 84.6837 33.5382 84.5282 33.0949C84.3727 32.6515 84.0196 32.3288 83.4688 32.1268C83.1083 31.9945 82.7516 31.9602 82.3988 32.0239C82.0559 32.0913 81.7388 32.259 81.4473 32.527C81.1695 32.7887 80.9461 33.1498 80.7771 33.6105L79.2947 37.6511L77.4922 36.9898ZM102.053 46.205C101.302 45.9295 100.7 45.5268 100.247 44.9969C99.7973 44.4571 99.5207 43.8329 99.417 43.1246C99.3133 42.4162 99.4029 41.6764 99.6858 40.9054C99.9797 40.1042 100.392 39.4602 100.923 38.9732C101.464 38.49 102.082 38.1828 102.778 38.0517C103.484 37.9243 104.217 38.0002 104.978 38.2794C105.719 38.5513 106.304 38.9535 106.734 39.486C107.163 40.0185 107.425 40.6203 107.52 41.2913C107.619 41.9523 107.541 42.6283 107.287 43.3192C107.251 43.4194 107.21 43.5295 107.166 43.6497C107.122 43.7699 107.066 43.8914 106.998 44.0142L100.84 41.7548L101.264 40.5982L105.635 42.2018C105.817 41.6437 105.79 41.1451 105.553 40.7061C105.32 40.2571 104.944 39.937 104.423 39.746C104.052 39.6101 103.681 39.5703 103.308 39.6266C102.935 39.683 102.596 39.8483 102.291 40.1227C101.989 40.387 101.745 40.7745 101.557 41.2852L101.398 41.7209C101.225 42.1915 101.161 42.6283 101.207 43.0312C101.262 43.4378 101.407 43.7864 101.641 44.0768C101.889 44.361 102.203 44.5728 102.584 44.7124C103.004 44.8667 103.383 44.9034 103.719 44.8223C104.066 44.7449 104.359 44.5799 104.6 44.3272L106.432 44.9996C106.12 45.4188 105.733 45.7599 105.273 46.0228C104.817 46.2758 104.313 46.4261 103.761 46.4737C103.213 46.5114 102.644 46.4218 102.053 46.205Z" fill="#211DB5"/>
</svg>
